<svg viewBox="0 0 15 17.1" xmlns="http://www.w3.org/2000/svg" xmlns:xlink="http://www.w3.org/1999/xlink" width="15.000000" height="17.100006" fill="none">
	<rect id="search 3" width="15.000000" height="17.100000" x="0.000000" y="0.000031" fill="rgb(255,255,255)" fill-opacity="0" />
	<path id="Vector" d="M14.6506 15.9613L10.0862 10.7579C10.9465 9.61422 11.4706 8.13155 11.4706 6.51007C11.4706 2.90499 8.89765 -0.0281677 5.7353 -0.0281677C4.20353 -0.0281677 2.76265 0.651809 1.67824 1.88603C0.595589 3.12125 -0.000881375 4.76386 9.77541e-07 6.51007C9.77541e-07 10.1152 2.57294 13.0483 5.7353 13.0483C7.15765 13.0483 8.45912 12.4508 9.46235 11.4701L14.0268 16.6735L14.6506 15.9613ZM5.7353 12.0424C3.06 12.0424 0.882354 9.56091 0.882354 6.51007C0.881472 5.03142 1.38618 3.6423 2.30294 2.59819C3.21882 1.55308 4.43824 0.977715 5.7353 0.977715C8.41059 0.977715 10.5882 3.45923 10.5882 6.51007C10.5882 9.5599 8.41059 12.0424 5.7353 12.0424Z" fill="rgb(255,255,255)" fill-rule="nonzero" />
</svg>
